<svg version="1.1" xmlns="http://www.w3.org/2000/svg" viewBox="0 0 617.009765625 85.84375" width="1234.01953125" height="171.6875">
  <!-- svg-source:excalidraw -->
  
  <defs>
    <style>
      @font-face {
        font-family: "Virgil";
        src: url("https://excalidraw.com/Virgil.woff2");
      }
      @font-face {
        font-family: "Cascadia";
        src: url("https://excalidraw.com/Cascadia.woff2");
      }
    </style>
  </defs>
  <rect x="0" y="0" width="617.009765625" height="85.84375" fill="#ffffff"></rect><g stroke-linecap="round" transform="translate(10 38.6484375) rotate(0 57.408203125 18.59765625)"><path d="M-0.53 -1.47 C23.68 1.06, 49.6 -0.31, 114.8 0.72 M-0.68 0.39 C32.39 -1.83, 63.52 -0.06, 114.12 0.38 M113.64 -1.77 C115.02 13.35, 114.22 27.64, 115.09 36.11 M114.83 -0.44 C115.69 10.71, 114.52 21.14, 114.5 36.72 M114.82 36.9 C68.58 37.77, 25.61 39.89, 1.75 38.81 M114.84 36.64 C90.99 37.75, 68.4 37.79, 0.33 36.41 M0.24 37.14 C0.82 22.51, -1.3 11.35, -1.73 -1.87 M-0.64 36.5 C0.05 28.33, 0.39 16.78, -0.81 0.08" stroke="#000000" stroke-width="1" fill="none"></path></g><g transform="translate(35.583984375 47.13671875) rotate(0 30.5 10)"><text x="30.5" y="14" font-family="Virgil, Segoe UI Emoji" font-size="16px" fill="#495057" text-anchor="middle" style="white-space: pre;" direction="ltr">Browser</text></g><g stroke-linecap="round" transform="translate(492.193359375 33.4609375) rotate(0 57.408203125 18.59765625)"><path d="M-0.94 0.3 C27.13 -0.23, 53.53 1.56, 114.33 0.14 M0.71 -0.83 C44.56 0.49, 88.09 -0.07, 115.67 0.23 M114.93 -0.97 C113.91 6.67, 114.87 14.27, 114.71 37.86 M115.57 -0.25 C114.4 7.26, 114.51 15.56, 115.67 37.38 M112.87 36.78 C69.89 38.73, 27.96 38.64, -1.93 36.11 M114.37 37.43 C77.54 36.84, 39.9 35.78, 0.5 37.03 M0.76 35.51 C-1.41 28.9, -1.78 18.4, -0.76 1.85 M0.4 38.08 C0.97 27.88, -0.57 20.46, -0.87 -0.84" stroke="#000000" stroke-width="1" fill="none"></path></g><g transform="translate(522.6015625 42.05859375) rotate(0 27 10)"><text x="27" y="14" font-family="Virgil, Segoe UI Emoji" font-size="16px" fill="#495057" text-anchor="middle" style="white-space: pre;" direction="ltr">Service</text></g><g transform="translate(495.07421875 10) rotate(0 14 10)"><text x="0" y="14" font-family="Virgil, Segoe UI Emoji" font-size="16px" fill="#495057" text-anchor="start" style="white-space: pre;" direction="ltr">mp4</text></g><g transform="translate(86.0078125 13.265625) rotate(0 19.5 10)"><text x="0" y="14" font-family="Virgil, Segoe UI Emoji" font-size="16px" fill="#495057" text-anchor="start" style="white-space: pre;" direction="ltr">video</text></g><g stroke-linecap="round" transform="translate(151.9892578125 37.30859375) rotate(0 50.80078125 19.04296875)"><path d="M-1.74 2 C24.93 -0.2, 47.82 -1.39, 101.55 -0.61 M0.89 0.83 C26.98 0.01, 53.22 -0.63, 101.89 0.8 M100.06 0.36 C102.03 13.87, 101.82 28.88, 102.53 39.64 M101.56 -0.13 C102.23 14.67, 101.83 29.75, 101.91 38.19 M100.48 36.34 C61.79 40.05, 23.68 39.34, 0.34 38.18 M100.64 37.43 C72.8 38.93, 45.23 37.98, 0.52 38.57 M1.02 37.97 C1.32 25.13, 1.89 10.4, 0.66 1.12 M0.43 37.11 C0.39 28.2, -0.44 19.42, -0.02 -0.75" stroke="#495057" stroke-width="1" fill="none"></path></g><g transform="translate(179.2900390625 46.3515625) rotate(0 23.5 10)"><text x="23.5" y="14" font-family="Virgil, Segoe UI Emoji" font-size="16px" fill="#495057" text-anchor="middle" style="white-space: pre;" direction="ltr">mp4.js</text></g><g transform="translate(214.0400390625 12.2890625) rotate(0 18 10)"><text x="0" y="14" font-family="Virgil, Segoe UI Emoji" font-size="16px" fill="#495057" text-anchor="start" style="white-space: pre;" direction="ltr">fmp4</text></g><g stroke-linecap="round"><g transform="translate(150.5400390625 54.6171875) rotate(0 -12.110163803445175 -0.7545064516179423)"><path d="M0.8 -0.28 C-3.17 -0.47, -20.31 -1.1, -24.44 -1.31 M-0.25 -1.47 C-4.25 -1.49, -21.03 -0.19, -25.02 -0.04" stroke="#495057" stroke-width="1" fill="none"></path></g><g transform="translate(150.5400390625 54.6171875) rotate(0 -12.110163803445175 -0.7545064516179423)"><path d="M-13.75 -4.29 C-16.83 -2.52, -19.9 -3.27, -26.19 0.95 M-13.42 -4.82 C-15.55 -3.4, -18.46 -2.56, -24.74 -0.46" stroke="#495057" stroke-width="1" fill="none"></path></g><g transform="translate(150.5400390625 54.6171875) rotate(0 -12.110163803445175 -0.7545064516179423)"><path d="M-13.25 4.3 C-16.44 3.97, -19.63 1.11, -26.19 0.95 M-12.91 3.78 C-15.14 3.2, -18.17 2.06, -24.74 -0.46" stroke="#495057" stroke-width="1" fill="none"></path></g></g><g stroke-linecap="round"><g transform="translate(489.4853515625 53.30078125) rotate(0 -112.0352163535822 1.843081050114705)"><path d="M1.14 0.55 C-36.07 1.23, -186.52 3.46, -224.08 3.89 M0.28 -0.2 C-37.04 0.13, -187.61 1.35, -225.21 2.1" stroke="#495057" stroke-width="1" fill="none"></path></g><g transform="translate(489.4853515625 53.30078125) rotate(0 -112.0352163535822 1.843081050114705)"><path d="M-196.23 -9.09 C-202.48 -6.7, -210.17 -3.53, -226.21 0.39 M-196.18 -8.48 C-208.21 -4.62, -218.54 -1.78, -225.56 1.21" stroke="#495057" stroke-width="1" fill="none"></path></g><g transform="translate(489.4853515625 53.30078125) rotate(0 -112.0352163535822 1.843081050114705)"><path d="M-195.96 11.43 C-202.25 9.15, -210 7.65, -226.21 0.39 M-195.91 12.04 C-208.19 8.35, -218.62 3.64, -225.56 1.21" stroke="#495057" stroke-width="1" fill="none"></path></g></g></svg>