<svg viewBox="0 0 500 500" xmlns="http://www.w3.org/2000/svg" version="1.1" id="svg_null">
  <g id="root" stroke="none" stroke-width="1" fill="none" fill-rule="evenodd">
    <rect id="background" fill="#FFF" x="0" y="0" width="500" height="500"></rect>
    <g id="shape" transform="translate(40.000000, 215.000000)" fill="#000" fill-rule="nonzero">
      <path
        d="M6.806 34.011c1.253 0 2.269 1.113 2.269 2.489c0 1.376 -1.016 2.489 -2.269 2.489l-4.537 0c-1.253 0 -2.269 -1.113 -2.269 -2.489c0 -1.376 1.016 -2.489 2.269 -2.489l4.537 0zm409.925 0c1.253 0 2.269 1.113 2.269 2.489c0 1.376 -1.016 2.489 -2.269 2.489l-344.337 0c-1.253 0 -2.269 -1.113 -2.269 -2.489c0 -1.376 1.016 -2.489 2.269 -2.489l344.337 0z"
        id="shape.primary"
        fill="#f33535"></path>
      <path
        d="M35.97 18.25c1.245 0 2.255 1.02 2.255 2.281l0 31.938c0 1.261 -1.01 2.281 -2.255 2.281c-1.245 0 -2.255 -1.02 -2.255 -2.281l0 -31.938c0 -1.261 1.01 -2.281 2.255 -2.281zm26.4 0c1.245 0 2.255 1.02 2.255 2.281l0 31.938c0 1.261 -1.01 2.281 -2.255 2.281c-1.245 0 -2.255 -1.02 -2.255 -2.281l0 -31.938c0 -1.261 1.01 -2.281 2.255 -2.281zm-44.44 9.125c1.245 0 2.255 1.02 2.255 2.281l0 13.688c0 1.261 -1.01 2.281 -2.255 2.281c-1.245 0 -2.255 -1.02 -2.255 -2.281l0 -13.688c0 -1.261 1.01 -2.281 2.255 -2.281zm36.08 -18.25c1.245 0 2.255 1.02 2.255 2.281l0 50.188c0 1.261 -1.01 2.281 -2.255 2.281c-1.245 0 -2.255 -1.02 -2.255 -2.281l0 -50.188c0 -1.261 1.01 -2.281 2.255 -2.281zm-27.06 0c1.245 0 2.255 1.02 2.255 2.281l0 50.188c0 1.261 -1.01 2.281 -2.255 2.281c-1.245 0 -2.255 -1.02 -2.255 -2.281l0 -50.188c0 -1.261 1.01 -2.281 2.255 -2.281zm18.04 -9.125c1.245 0 2.255 1.02 2.255 2.281l0 68.438c0 1.261 -1.01 2.281 -2.255 2.281c-1.245 0 -2.255 -1.02 -2.255 -2.281l0 -68.438c0 -1.261 1.01 -2.281 2.255 -2.281z"
        id="shape.primary"
        fill="#f33535"></path>
    </g>
    <g id="Group" transform="translate(123.000000, 192.000000)">
      <rect id="Rectangle-70" x="0" y="0" width="334" height="46"></rect>
      <text id="headerText.primary" font-family="Fira Mono" font-size="46" font-weight="700" line-spacing="46" letter-spacing="4.04" fill="#f33535" data-text-alignment="L" font-style="normal">
        <tspan x="0" y="36">mp4.js</tspan>
      </text>
    </g>
  </g>
</svg>
