<svg version="1.1" xmlns="http://www.w3.org/2000/svg" viewBox="0 0 617.009765625 85.84375" width="1234.01953125" height="171.6875">
  <!-- svg-source:excalidraw -->
  
  <defs>
    <style>
      @font-face {
        font-family: "Virgil";
        src: url("https://excalidraw.com/Virgil.woff2");
      }
      @font-face {
        font-family: "Cascadia";
        src: url("https://excalidraw.com/Cascadia.woff2");
      }
    </style>
  </defs>
  <rect x="0" y="0" width="617.009765625" height="85.84375" fill="#ffffff"></rect><g stroke-linecap="round" transform="translate(10 38.6484375) rotate(0 57.408203125 18.59765625)"><path d="M1.17 1.59 C46.13 -0.74, 90.3 0.29, 115.9 -1.16 M0.45 0.46 C42.27 -0.99, 84 -0.66, 114.25 -0.64 M115.94 -0.37 C114.34 12.89, 113.31 27.11, 115.1 38.09 M114.27 0.91 C114.19 12.82, 114.88 25.83, 115.11 37.22 M113.79 37.06 C78.32 37.53, 41.13 37.58, 1.53 36.93 M113.97 37.11 C90.68 38.42, 68.39 37.92, 0.31 36.64 M1.74 37.93 C0.74 23.02, 1.45 12.26, -0.24 1.47 M-0.61 36.56 C-0.14 23.03, -0.16 9.17, -0.11 -0.57" stroke="#000000" stroke-width="1" fill="none"></path></g><g transform="translate(35.583984375 47.13671875) rotate(0 30.5 10)"><text x="30.5" y="14" font-family="Virgil, Segoe UI Emoji" font-size="16px" fill="#495057" text-anchor="middle" style="white-space: pre;" direction="ltr">Browser</text></g><g stroke-linecap="round" transform="translate(492.193359375 33.4609375) rotate(0 57.408203125 18.59765625)"><path d="M0.55 1.87 C37.76 0.57, 72.65 -0.75, 113.66 0.16 M0.86 0.14 C25.31 -0.15, 50.45 -0.84, 115.59 0.66 M115.52 -1.88 C115.98 11.97, 116.11 19.56, 116.2 35.54 M114.18 -0.15 C114.69 8.16, 114.9 15.17, 114.13 36.6 M113.05 37.56 C73.32 37.74, 32.74 36.11, 1.49 35.84 M115.45 37.56 C68.78 37.19, 25.22 36.43, 0.59 36.31 M-0.41 38.64 C0.92 24.36, -1.46 13.89, 0.98 1.14 M-0.3 36.93 C-0.58 23.65, 0.91 11.17, 0.96 -0.51" stroke="#000000" stroke-width="1" fill="none"></path></g><g transform="translate(522.6015625 42.05859375) rotate(0 27 10)"><text x="27" y="14" font-family="Virgil, Segoe UI Emoji" font-size="16px" fill="#495057" text-anchor="middle" style="white-space: pre;" direction="ltr">Service</text></g><g transform="translate(495.07421875 10) rotate(0 14 10)"><text x="0" y="14" font-family="Virgil, Segoe UI Emoji" font-size="16px" fill="#495057" text-anchor="start" style="white-space: pre;" direction="ltr">mp4</text></g><g transform="translate(86.0078125 13.265625) rotate(0 19.5 10)"><text x="0" y="14" font-family="Virgil, Segoe UI Emoji" font-size="16px" fill="#495057" text-anchor="start" style="white-space: pre;" direction="ltr">video</text></g><g stroke-linecap="round"><g transform="translate(488.765625 54.46875) rotate(0 -175.63632800243798 2.0875568177551145)"><path d="M0.73 -0.98 C-57.91 -0.25, -293.46 4.36, -352 5.15 M-0.35 1.13 C-58.61 1.47, -291.36 2.98, -349.8 3.61" stroke="#495057" stroke-width="1" fill="none"></path></g><g transform="translate(488.765625 54.46875) rotate(0 -175.63632800243798 2.0875568177551145)"><path d="M-323.32 -8.5 C-327.83 -2.81, -338.22 -1.15, -350.52 4.76 M-322.18 -6.26 C-330.27 -4.4, -336.4 -1.14, -350.21 3.88" stroke="#495057" stroke-width="1" fill="none"></path></g><g transform="translate(488.765625 54.46875) rotate(0 -175.63632800243798 2.0875568177551145)"><path d="M-323.15 12.02 C-327.84 11.83, -338.29 7.62, -350.52 4.76 M-322.01 14.26 C-330.28 10.52, -336.45 8.17, -350.21 3.88" stroke="#495057" stroke-width="1" fill="none"></path></g></g></svg>